<svg width="91" height="92" viewBox="0 0 91 92" fill="none" xmlns="http://www.w3.org/2000/svg">
<path d="M43.9569 80.7363C43.9569 80.7363 44.7156 68.1327 37.6888 63.1951C30.6598 58.2551 30.2816 57.6855 28.3814 55.9766C26.4811 54.2677 24.5832 54.0763 23.6331 55.2178C22.683 56.3571 23.2526 59.0162 26.292 61.2971C29.3315 63.5756 31.0403 65.8565 31.4208 68.3264C31.4208 68.3264 31.6099 66.9958 27.0531 66.0479C22.4939 65.0977 18.5066 59.399 16.7955 56.1703C15.0866 52.9416 14.7061 50.4716 12.6168 50.2825C10.5274 50.0934 11.2862 52.7525 11.6667 54.8419C12.0472 56.9314 14.8952 67.1895 21.7328 73.0773C24.9614 75.7364 33.1297 77.4453 33.6993 80.8654L33.75 88.978L43.8277 91.4308L43.9569 80.7363Z" fill="white"/>
<path d="M46.8579 80.7363C46.8579 80.7363 46.0992 68.1327 53.1259 63.1951C60.155 58.2551 60.5332 57.6855 62.4334 55.9766C64.3336 54.2677 66.2316 54.0763 67.1817 55.2178C68.1318 56.3571 67.5622 59.0162 64.5227 61.2971C61.4833 63.5756 59.7745 65.8565 59.394 68.3264C59.394 68.3264 59.2048 66.9958 63.7617 66.0479C68.3209 65.0977 72.3082 59.399 74.0193 56.1703C75.7305 52.9416 76.1087 50.4716 78.198 50.2825C80.2873 50.0934 79.5286 52.7525 79.1481 54.8419C78.7676 56.9314 75.9196 67.1895 69.0819 73.0773C65.8534 75.7364 57.6851 77.4453 57.1155 80.8654L57.0648 88.978L46.9871 91.4308L46.8579 80.7363Z" fill="white"/>
<path d="M45.4074 91.4579C20.3699 91.4579 0 71.087 0 46.0483C0 21.0095 20.3699 0.638611 45.4074 0.638611C70.4449 0.638611 90.8148 21.0095 90.8148 46.0483C90.8148 71.087 70.4449 91.4579 45.4074 91.4579ZM45.4074 2.51358C21.403 2.51358 1.87487 22.0427 1.87487 46.0483C1.87487 70.0538 21.403 89.583 45.4074 89.583C69.4117 89.583 88.9399 70.0538 88.9399 46.0483C88.9399 22.0427 69.4117 2.51358 45.4074 2.51358Z" fill="white"/>
<path d="M66.287 27.3101C66.3262 27.3055 66.3769 27.294 66.3839 27.2917C66.3562 27.2963 66.3308 27.3032 66.3031 27.3078C66.2985 27.3078 66.2939 27.3101 66.287 27.3101Z" fill="white"/>
<path d="M66.2527 27.3148C66.2387 27.3171 66.2294 27.3194 66.2131 27.3218C66.2387 27.3171 66.2644 27.3148 66.29 27.3101C66.2853 27.3101 66.2783 27.3125 66.276 27.3125C66.2667 27.3125 66.2597 27.3148 66.2527 27.3148Z" fill="white"/>
<path d="M47.3099 30.9932C47.3216 31.0234 47.3356 31.0536 47.3472 31.0839C47.3402 31.0629 47.3356 31.0513 47.3286 31.035C47.3262 31.0304 47.3239 31.0281 47.3216 31.0234C47.3193 31.0141 47.3146 31.0048 47.3099 30.9932Z" fill="white"/>
<path d="M49.2102 33.0965C49.2288 33.1058 49.2614 33.1244 49.2801 33.1267C49.2917 33.129 49.2521 33.1127 49.2102 33.0965Z" fill="white"/>
<path d="M52.5979 32.811C52.6026 32.8086 52.6072 32.804 52.6095 32.8017C52.6212 32.7924 52.6631 32.7691 52.6678 32.7575C52.6724 32.7482 52.6352 32.7784 52.5979 32.811Z" fill="white"/>
<path d="M59.295 26.4153C59.288 26.4177 59.281 26.42 59.274 26.4223C59.281 26.42 59.288 26.42 59.295 26.4153Z" fill="white"/>
<path d="M63.9993 16.3025C64.0062 16.3141 64.0131 16.3717 64.02 16.4178C64.0177 16.374 64.0131 16.3302 63.9993 16.3025Z" fill="white"/>
<path d="M63.5457 19.4805C63.5457 19.4805 63.5038 19.5363 63.4712 19.5782C63.5108 19.5386 63.548 19.4968 63.5457 19.4805Z" fill="white"/>
<path d="M49.3809 17.5526C49.3832 17.5502 49.3879 17.5456 49.3902 17.5433C49.3646 17.5642 49.353 17.5735 49.3809 17.5526Z" fill="white"/>
<path d="M49.4131 17.5253C49.4154 17.523 49.4201 17.5206 49.4224 17.5183C49.4364 17.509 49.4853 17.4788 49.4899 17.4695C49.4923 17.4602 49.4503 17.4951 49.4131 17.5253Z" fill="white"/>
<path d="M52.7271 16.3717C52.7317 16.3833 52.7434 16.395 52.7527 16.4066C52.7387 16.3857 52.7294 16.3717 52.7271 16.3717Z" fill="white"/>
<path d="M32.3456 41.3782C32.6753 40.7878 33.0697 40.2366 33.5263 39.7339C35.0852 38.0204 37.1723 37.0771 39.4046 37.0771C41.0811 37.0771 42.6723 37.6168 44.0122 38.59C43.7331 37.9581 43.4149 37.4392 43.2904 37.227C42.9814 36.6989 43.2904 36.3345 43.2904 36.3345C43.2904 36.3345 43.8369 36.0255 44.2497 34.9461C44.4411 34.448 44.4503 33.7607 44.4088 33.1611C44.0283 33.6685 43.5671 34.1113 43.0275 34.4549C42.1904 34.9877 41.1964 35.1998 40.214 35.2252C39.2293 35.2506 38.1893 35.043 37.3614 34.4895C36.6418 34.0075 36.0699 33.3272 35.7079 32.5407C35.1336 31.2885 34.9376 29.9047 34.9353 28.5325C34.571 28.581 34.2043 28.6109 33.8445 28.6248C32.2971 28.6801 30.7474 28.3296 29.5183 27.3563C28.6904 26.6991 28.1461 25.7466 27.8348 24.748C27.6895 24.2798 28.0078 23.7056 28.4897 23.5949C28.9994 23.4796 29.486 23.7494 29.6428 24.2499C29.6751 24.3536 29.7097 24.4551 29.7466 24.5566C29.7581 24.5889 29.7719 24.6235 29.7858 24.6558C29.7904 24.665 29.795 24.6742 29.7973 24.6834C29.8803 24.8656 29.9772 25.0432 30.0833 25.2116C30.1317 25.2854 30.1801 25.3592 30.2332 25.4306C30.2539 25.456 30.2747 25.4814 30.2954 25.5068C30.4107 25.6405 30.5353 25.7674 30.669 25.885C30.7428 25.9495 31.0011 26.1202 30.7151 25.9311C30.7889 25.9795 30.8558 26.0349 30.9296 26.0833C31.068 26.1756 31.2133 26.2586 31.3632 26.3324C31.3839 26.3416 31.4139 26.3601 31.4439 26.3785C31.4531 26.3808 31.4646 26.3854 31.4877 26.3946C31.5338 26.4108 31.5776 26.4292 31.6237 26.4454C31.7759 26.5007 31.9305 26.5492 32.0873 26.5884C32.2418 26.6276 32.3986 26.6622 32.5554 26.6898C32.59 26.6968 32.6246 26.7014 32.6592 26.706C32.6638 26.706 32.6707 26.7083 32.6776 26.7083C32.7192 26.7129 32.763 26.7175 32.8045 26.7221C33.102 26.7498 33.4018 26.7613 33.7016 26.7544C33.9714 26.7498 34.2435 26.7314 34.511 26.7014C34.5525 26.6968 34.5917 26.6922 34.6332 26.6875C34.6378 26.6875 34.6401 26.6875 34.6448 26.6852C34.7531 26.6691 34.8592 26.6506 34.9676 26.6322C35.2005 26.5884 35.4357 26.5422 35.6641 26.4731C36.2175 26.307 36.8932 26.7706 36.8494 27.3771C36.8056 28.0252 36.7941 28.6755 36.8379 29.3213C36.8494 29.5011 36.8655 29.6833 36.8863 29.8632C36.8886 29.884 36.8909 29.907 36.8932 29.9278C36.9047 30.0108 36.9186 30.0938 36.9324 30.1769C36.997 30.5389 37.0823 30.8964 37.1976 31.247C37.2253 31.3277 37.253 31.4084 37.2829 31.4868C37.2922 31.5122 37.3037 31.5375 37.3129 31.5629C37.3844 31.7197 37.4628 31.8742 37.5505 32.0218C37.5943 32.0979 37.6427 32.1718 37.6911 32.2456C37.7096 32.2732 37.7303 32.3032 37.7511 32.3309C37.8549 32.4531 37.9609 32.5753 38.0786 32.686C38.1293 32.7322 38.18 32.7737 38.2331 32.8198C38.263 32.8406 38.293 32.8613 38.323 32.8821C38.4683 32.9766 38.6182 33.055 38.775 33.1311C38.8096 33.1427 38.8419 33.1565 38.8765 33.168C38.9779 33.2026 39.0817 33.2326 39.1855 33.2603C39.28 33.2834 39.3769 33.3041 39.4738 33.3203C39.4807 33.3226 39.4899 33.3226 39.5014 33.3249C39.5452 33.3295 39.6006 33.3364 39.619 33.3387C39.852 33.3595 40.0849 33.3618 40.3178 33.3525C40.4492 33.3479 40.5784 33.3364 40.7098 33.3249C40.7214 33.3226 40.7467 33.3203 40.7721 33.3179C40.8021 33.3133 40.8367 33.3087 40.8505 33.3064C41.0465 33.2718 41.2379 33.2234 41.427 33.1634C41.4985 33.1404 41.5677 33.1127 41.6369 33.0873C41.6715 33.0712 41.7061 33.055 41.7384 33.0389C41.8998 32.9582 42.0543 32.8659 42.2019 32.7645C42.2249 32.7483 42.2457 32.7345 42.2665 32.7183C42.3287 32.6653 42.391 32.6145 42.451 32.5592C42.5801 32.4416 42.7 32.3147 42.813 32.181C42.8315 32.1602 42.8476 32.1395 42.8661 32.1164C42.9099 32.0564 42.9514 31.9988 42.9929 31.9388C43.1843 31.6552 43.348 31.3507 43.4887 31.0394C43.5671 30.8318 43.5371 30.9264 43.5071 30.9979C43.5118 30.9887 43.5141 30.9817 43.5187 30.9725C43.551 30.8895 43.5832 30.8065 43.6132 30.7234C43.6732 30.5551 43.7285 30.3867 43.777 30.2161C43.8738 29.8794 43.9522 29.538 44.0168 29.1921C44.0468 29.0307 44.0721 28.8715 44.0952 28.7101C44.0952 28.7055 44.0975 28.6986 44.0975 28.694C44.109 28.6086 44.1183 28.5233 44.1275 28.438C44.2151 27.61 44.2151 26.789 44.1828 25.9588C44.1828 25.9449 44.1805 25.9311 44.1805 25.9173C44.1667 25.7697 43.3803 21.1388 43.039 20.0894C41.517 19.981 40.1702 19.1277 39.1947 17.9631C39.0886 18.0784 38.9826 18.1914 38.8672 18.2975C37.9563 19.1369 36.8425 19.6904 35.6733 20.071C35.2074 20.2232 34.6286 19.8934 34.5202 19.416C34.4026 18.9017 34.6747 18.4266 35.1752 18.2629C35.302 18.2214 35.4288 18.1776 35.5534 18.1337C35.6179 18.1107 35.6825 18.0853 35.7471 18.0599C35.7678 18.053 35.8324 18.0253 35.8716 18.0092C35.9016 17.9954 35.9339 17.9815 35.9454 17.9769C35.9961 17.9538 36.0446 17.9308 36.0953 17.9077C36.2152 17.8501 36.3328 17.7901 36.4504 17.7278C36.6465 17.6218 36.8402 17.5064 37.0247 17.3819C37.1054 17.3289 37.1838 17.2712 37.2622 17.2135C37.2968 17.1859 37.3314 17.1582 37.3637 17.1305C37.5089 17.0083 37.6496 16.8768 37.7811 16.7408C37.8456 16.6739 37.9079 16.6024 37.9702 16.5332C37.9932 16.5078 38.014 16.4802 38.0347 16.4548C38.2192 16.1988 38.3853 15.9336 38.5213 15.6476C38.5306 15.6269 38.5398 15.6084 38.549 15.5877C38.5721 15.5277 38.5951 15.4677 38.6159 15.4078C38.662 15.274 38.7035 15.1356 38.7381 14.9973C38.7704 14.8658 38.8004 14.732 38.8211 14.5983C38.8234 14.5868 38.8257 14.5752 38.8257 14.5637C38.8303 14.5176 38.8373 14.4714 38.8396 14.423C38.8603 14.1924 38.8649 13.9618 38.8557 13.7311C38.8511 13.6297 38.8465 13.5305 38.8373 13.4313C38.835 13.399 38.8303 13.3668 38.828 13.3345C38.8004 13.1569 38.7704 12.977 38.715 12.804C38.5675 12.3359 38.888 11.7616 39.37 11.6509C39.8796 11.5356 40.3662 11.8054 40.523 12.3059C40.5738 12.4696 40.6061 12.6426 40.6337 12.8133C40.7121 13.3114 40.7583 13.8096 40.7237 14.3146C40.6775 14.995 40.5207 15.6568 40.2648 16.2749C40.3247 16.3695 40.387 16.464 40.4539 16.554C40.4677 16.5724 40.5 16.6162 40.5253 16.6508C40.5553 16.6877 40.583 16.7223 40.613 16.7569C40.8551 17.0452 41.1272 17.2966 41.4132 17.5387C41.4524 17.5664 41.4916 17.5964 41.5308 17.6218C41.6254 17.6863 41.7222 17.7463 41.8191 17.8039C41.9067 17.8547 41.999 17.9031 42.0889 17.9492C42.1235 17.9654 42.1604 17.9838 42.1973 18C42.2111 18.0046 42.2249 18.0115 42.2365 18.0161C42.4809 18.1061 42.73 18.1683 42.986 18.2145C43.0044 18.2168 43.0206 18.2191 43.039 18.2191C43.1151 18.226 43.1935 18.2306 43.2696 18.2329C43.4195 18.2375 43.5671 18.2306 43.717 18.2191C46.1569 14.8796 44.4872 11.1805 42.9721 9.7898C41.3233 8.27461 38.0301 10.2464 38.0301 10.2464C38.0301 10.2464 37.3752 10.5901 36.289 11.7178C35.2051 12.8479 34.6724 12.6034 34.6724 12.6034C29.9587 12.6426 27.8233 14.5452 26.8639 16.0835C26.8478 16.1781 26.8247 16.2703 26.8109 16.3649C26.8063 16.3925 26.8017 16.4225 26.797 16.4502C26.7947 16.464 26.7947 16.4709 26.7924 16.4802C26.7924 16.4963 26.7924 16.5125 26.7901 16.524C26.774 16.6693 26.7625 16.8169 26.7532 16.9645C26.7348 17.2666 26.7348 17.5687 26.7555 17.8708C26.7602 17.94 26.7671 18.0069 26.774 18.0761C26.774 18.083 26.774 18.0876 26.7763 18.0945C26.7763 18.1038 26.7786 18.113 26.7786 18.1222C26.804 18.2744 26.8316 18.4243 26.8708 18.5742C26.91 18.7287 26.9585 18.881 27.0161 19.0286C27.0184 19.0355 27.0231 19.0424 27.0254 19.047C27.0599 19.1208 27.0968 19.1923 27.136 19.2615C27.1729 19.3284 27.2121 19.3929 27.2537 19.4575C27.2744 19.4875 27.2929 19.5175 27.3136 19.5451C27.3251 19.5613 27.339 19.5774 27.3505 19.5959C27.3528 19.5982 27.3528 19.5982 27.3551 19.6005C27.3851 19.6305 27.4128 19.6582 27.422 19.6674C27.4797 19.7296 27.5396 19.7873 27.6019 19.845C27.6273 19.868 27.6526 19.8888 27.6803 19.9118C27.7541 19.9649 27.8302 20.0133 27.9063 20.0594C27.9962 20.1125 28.0885 20.1586 28.183 20.2047C28.2199 20.2186 28.2545 20.2324 28.2914 20.2462C28.5174 20.3247 28.748 20.3823 28.9832 20.4238C28.9971 20.4261 29.034 20.433 29.0686 20.4377C29.1101 20.4423 29.1631 20.4492 29.1839 20.4515C29.3292 20.4653 29.4768 20.4723 29.6243 20.4769C30.1132 20.4907 30.5837 20.8989 30.5606 21.4132C30.5376 21.909 30.1478 22.3657 29.6243 22.3495C28.6281 22.3218 27.5627 22.1212 26.7348 21.5308C25.9899 21.0004 25.4803 20.2924 25.1759 19.4344C25.0882 19.1854 25.026 18.9294 24.9775 18.6688C22.0049 20.7259 22.0049 24.206 22.1756 25.7581C22.1756 25.7604 22.1779 25.7627 22.1779 25.7674C22.2471 25.8988 22.307 26.0326 22.3855 26.1594C22.42 26.2148 22.4592 26.2701 22.4961 26.3232C22.5146 26.3462 22.5353 26.3693 22.5538 26.39C22.6599 26.51 22.7775 26.6137 22.8974 26.7175C22.9343 26.7429 22.9712 26.7683 23.0104 26.7936C23.098 26.8513 23.188 26.902 23.2802 26.9504C23.3333 26.9781 23.3863 27.0058 23.4417 27.0312C23.4417 27.0312 23.444 27.0312 23.444 27.0335C23.5477 27.0727 23.6492 27.1119 23.7553 27.1442C23.9767 27.2134 24.2027 27.2641 24.431 27.3033C24.4264 27.301 24.4586 27.3056 24.5624 27.3264C24.6201 27.3333 24.6777 27.3379 24.7377 27.3448C24.9106 27.3587 25.0813 27.3679 25.2543 27.3725C25.7432 27.384 26.2136 27.7945 26.1905 28.3088C26.1675 28.807 25.7777 29.259 25.2543 29.2451C24.1635 29.2175 23.0127 29.0214 22.0764 28.4218C21.8181 28.2558 21.5875 28.0667 21.38 27.8568C20.755 29.3074 21.0087 31.0117 21.2924 32.1026C21.4653 32.204 21.6383 32.3078 21.8158 32.3978C21.9173 32.4508 22.0188 32.4992 22.1226 32.5477C22.1733 32.5707 22.224 32.5938 22.2725 32.6169C22.2817 32.6215 22.284 32.6238 22.2909 32.6261C22.3001 32.6307 22.3047 32.6307 22.3163 32.6353C22.7014 32.7898 23.1003 32.9167 23.5062 33.002C23.6031 33.0227 23.7022 33.0412 23.8014 33.0573C23.8245 33.062 23.8452 33.0643 23.8683 33.0689C24.0505 33.085 24.2327 33.1012 24.4148 33.1058C24.5716 33.1081 24.7308 33.1058 24.8876 33.0965C24.9637 33.0919 25.0398 33.085 25.1136 33.0781C25.132 33.0758 25.1482 33.0735 25.1666 33.0712C25.1689 33.0712 25.1689 33.0712 25.1712 33.0712C25.4549 33.0251 25.7362 32.9582 26.0084 32.8705C26.126 32.8313 26.2413 32.7898 26.3589 32.746C26.4142 32.7206 26.4719 32.6953 26.5272 32.6676C26.7233 32.573 26.9147 32.4646 27.0991 32.3493C27.1753 32.3009 27.249 32.2525 27.3228 32.1994C27.3505 32.181 27.3759 32.1602 27.4036 32.1418C27.5304 32.038 27.6572 31.9365 27.7679 31.8166C28.1 31.4545 28.7596 31.4545 29.0939 31.8166C29.4491 32.204 29.4491 32.7575 29.0939 33.1427C28.6742 33.597 28.1115 33.966 27.565 34.2427C26.8109 34.6256 26.0153 34.847 25.1989 34.93C25.4664 36.6112 26.5872 40.1536 31.2847 41.1707C31.6537 41.2421 32.0066 41.3136 32.3456 41.3782Z" fill="white"/>
<path d="M31.1649 45.9168C31.1718 44.9597 31.3194 44.0234 31.5915 43.1378C31.3609 43.0917 31.128 43.0432 30.8858 42.9902C24.8346 41.6803 23.5709 36.8256 23.308 34.8561C23.3056 34.8561 23.3033 34.8561 23.301 34.8561C22.6507 34.7477 22.0165 34.5402 21.4123 34.268C21.1748 35.3243 21.0065 36.4128 21.4492 37.8473C22.0419 39.7592 23.6815 40.5456 24.2834 40.7877C24.8853 41.0299 24.687 41.6157 24.687 41.6157C24.6224 43.5621 25.6371 45.3218 26.4235 46.0459C26.9631 46.5441 28.8196 48.0754 31.5362 48.4306C31.2848 47.5796 31.158 46.7378 31.1649 45.9168Z" fill="white"/>
<path d="M69.4348 27.8475C69.2272 28.0551 68.9966 28.2465 68.7383 28.4125C67.8021 29.0121 66.6536 29.2082 65.5605 29.2358C65.0347 29.2497 64.645 28.7954 64.6242 28.2995C64.6012 27.7852 65.0716 27.3747 65.5605 27.3632C65.7335 27.3586 65.9064 27.3517 66.0771 27.3355C66.1347 27.3309 66.1924 27.324 66.2523 27.3171C66.3561 27.2986 66.3884 27.294 66.3838 27.294C66.6121 27.2548 66.8381 27.2041 67.0595 27.1349C67.1656 27.1026 67.267 27.0634 67.3708 27.0242C67.3708 27.0242 67.3731 27.0242 67.3731 27.0219C67.4285 26.9965 67.4815 26.9688 67.5345 26.9411C67.6268 26.8927 67.7167 26.8397 67.8044 26.7843C67.8413 26.759 67.8805 26.7336 67.9174 26.7082C68.0373 26.6044 68.1549 26.4984 68.261 26.3807C68.2817 26.3577 68.3002 26.3346 68.3186 26.3139C68.3555 26.2585 68.3947 26.2055 68.4293 26.1501C68.5077 26.0233 68.5677 25.8895 68.6369 25.7581C68.6369 25.7557 68.6392 25.7534 68.6392 25.7488C68.8098 24.1967 68.8098 20.7143 65.8372 18.6595C65.7888 18.9201 65.7265 19.1761 65.6389 19.4251C65.3345 20.2831 64.8249 20.9934 64.08 21.5215C63.2521 22.1096 62.1867 22.3125 61.1904 22.3402C60.6646 22.3541 60.2749 21.8997 60.2541 21.4039C60.2311 20.8873 60.7015 20.4791 61.1904 20.4676C61.338 20.4629 61.4833 20.456 61.6309 20.4422C61.6516 20.4399 61.7047 20.4353 61.7462 20.4284C61.7808 20.4237 61.8154 20.4168 61.8315 20.4145C62.0667 20.373 62.2974 20.3153 62.5234 20.2369C62.5603 20.2231 62.5949 20.2093 62.6318 20.1954C62.7263 20.1493 62.8185 20.1032 62.9085 20.0501C62.9869 20.004 63.0607 19.9556 63.1345 19.9025C63.1599 19.8818 63.1875 19.8587 63.2129 19.8357C63.2752 19.7803 63.3351 19.7203 63.3928 19.6581C63.402 19.6488 63.432 19.6212 63.4596 19.5912C63.462 19.5889 63.4619 19.5889 63.4643 19.5866C63.4758 19.5704 63.4873 19.5543 63.5012 19.5358C63.5219 19.5059 63.5427 19.4782 63.5611 19.4482C63.6026 19.3836 63.6418 19.3191 63.6787 19.2522C63.7179 19.1807 63.7548 19.1092 63.7894 19.0377C63.7917 19.0331 63.794 19.0262 63.7986 19.0192C63.8563 18.8717 63.9047 18.7194 63.9439 18.5649C63.9831 18.415 64.0108 18.2651 64.0362 18.1129C64.0362 18.1037 64.0385 18.0945 64.0385 18.0852C64.0385 18.0783 64.0385 18.0737 64.0408 18.0668C64.0477 17.9976 64.0546 17.9307 64.0592 17.8615C64.08 17.5594 64.08 17.2573 64.0615 16.9552C64.0523 16.8076 64.0408 16.6623 64.0246 16.5147C64.0223 16.5008 64.0223 16.487 64.0223 16.4709C64.02 16.4639 64.02 16.457 64.0177 16.4409C64.0131 16.4132 64.0085 16.3832 64.0039 16.3556C63.99 16.261 63.967 16.1688 63.9508 16.0742C62.9938 14.5336 60.8583 12.6333 56.1423 12.5941C56.1423 12.5941 55.6119 12.8386 54.5258 11.7085C53.4419 10.5785 52.7846 10.2371 52.7846 10.2371C52.7846 10.2371 49.4915 8.26761 47.8426 9.78049C46.3275 11.1712 44.6579 14.8703 47.0978 18.2098C47.2477 18.2213 47.3953 18.2282 47.5452 18.2236C47.6213 18.2213 47.6997 18.2167 47.7758 18.2098C47.7919 18.2075 47.8104 18.2075 47.8288 18.2052C48.0848 18.159 48.3338 18.0991 48.5783 18.0068C48.5921 18.0022 48.606 17.9976 48.6175 17.9907C48.6544 17.9745 48.6913 17.9584 48.7259 17.9399C48.8181 17.8961 48.9081 17.8477 48.9957 17.7946C49.0949 17.737 49.1917 17.677 49.284 17.6124C49.3232 17.5848 49.3624 17.5571 49.4016 17.5294C49.6898 17.2873 49.9597 17.0359 50.2018 16.7476C50.2318 16.713 50.2618 16.6761 50.2894 16.6415C50.3148 16.6069 50.3471 16.5631 50.3609 16.5447C50.4255 16.4524 50.4901 16.3602 50.55 16.2656C50.294 15.6475 50.1372 14.9857 50.0911 14.3053C50.0565 13.8026 50.1026 13.3021 50.181 12.804C50.2087 12.6333 50.2387 12.4603 50.2917 12.2966C50.4485 11.7961 50.9351 11.5263 51.4448 11.6416C51.9268 11.7523 52.2473 12.3266 52.0997 12.7947C52.0467 12.9677 52.0144 13.1476 51.9867 13.3252C51.9821 13.3575 51.9798 13.3897 51.9775 13.422C51.9683 13.5212 51.9614 13.6227 51.9591 13.7218C51.9498 13.9525 51.9544 14.1831 51.9752 14.4137C51.9798 14.4598 51.9844 14.506 51.989 14.5544C51.9913 14.5659 51.9936 14.5775 51.9936 14.589C52.0167 14.7227 52.0444 14.8565 52.0767 14.988C52.1113 15.1263 52.1528 15.2624 52.1989 15.3985C52.2196 15.4584 52.2427 15.5184 52.2658 15.5784C52.275 15.5991 52.2842 15.6176 52.2934 15.6383C52.4295 15.9243 52.5955 16.1895 52.78 16.4455C52.8008 16.4709 52.8238 16.4985 52.8446 16.5239C52.9046 16.5954 52.9691 16.6646 53.0337 16.7315C53.1651 16.8698 53.3058 16.999 53.4511 17.1212C53.4857 17.1489 53.5203 17.1766 53.5526 17.2042C53.631 17.2619 53.7094 17.3173 53.7901 17.3726C53.9769 17.4971 54.1683 17.6124 54.3643 17.7185C54.4819 17.7808 54.5995 17.8408 54.7195 17.8984C54.7702 17.9215 54.8186 17.9445 54.8694 17.9676C54.8809 17.9722 54.9132 17.9861 54.9432 17.9999C54.9801 18.016 55.0469 18.0414 55.0677 18.0506C55.1323 18.076 55.1968 18.1014 55.2614 18.1244C55.3859 18.1706 55.5128 18.2121 55.6396 18.2536C56.1377 18.4173 56.4122 18.8924 56.2945 19.4067C56.1862 19.8841 55.6073 20.2139 55.1415 20.0617C53.9723 19.6811 52.8561 19.1276 51.9475 18.2882C51.8322 18.1821 51.7238 18.0691 51.6201 17.9538C50.6446 19.1207 49.2978 19.9717 47.7758 20.0801C47.4345 21.1294 46.6481 25.7604 46.6342 25.908C46.6319 25.9218 46.6319 25.9356 46.6319 25.9495C46.5996 26.7797 46.5996 27.6007 46.6873 28.4287C46.6965 28.514 46.7057 28.5993 46.7173 28.6847C46.7173 28.6893 46.7196 28.6962 46.7196 28.7008C46.7426 28.8622 46.768 29.0237 46.798 29.1828C46.8625 29.5287 46.941 29.8701 47.0378 30.2068C47.0862 30.3774 47.1416 30.5481 47.2015 30.7141C47.2315 30.7972 47.2638 30.8825 47.2961 30.9632C47.2984 30.9724 47.303 30.9794 47.3076 30.9886C47.2776 30.9148 47.2477 30.8202 47.3261 31.0301C47.4667 31.3437 47.6282 31.6459 47.8219 31.9295C47.8634 31.9895 47.9072 32.0494 47.9487 32.1071C47.9672 32.1279 47.9833 32.1509 48.0018 32.1717C48.1148 32.3054 48.2347 32.4323 48.3638 32.5499C48.4238 32.6052 48.486 32.656 48.5483 32.709C48.5691 32.7252 48.5921 32.7413 48.6129 32.7552C48.7605 32.8566 48.915 32.9489 49.0764 33.0296C49.111 33.0457 49.1433 33.0619 49.1779 33.078C49.2471 33.1034 49.3186 33.1311 49.3877 33.1541C49.5768 33.2164 49.7682 33.2625 49.9643 33.2971C49.9781 33.2994 50.0104 33.304 50.0427 33.3086C50.068 33.311 50.0934 33.3156 50.1049 33.3156C50.2341 33.3294 50.3655 33.3386 50.497 33.3432C50.7299 33.3525 50.9628 33.3502 51.1957 33.3294C51.2142 33.3271 51.2718 33.3225 51.3133 33.3156C51.3249 33.3133 51.3341 33.3133 51.341 33.311C51.4379 33.2948 51.5347 33.2741 51.6293 33.251C51.7331 33.2256 51.8368 33.1956 51.9383 33.1587C51.9729 33.1472 52.0052 33.1334 52.0398 33.1218C52.1943 33.048 52.3465 32.9696 52.4918 32.8728C52.5217 32.852 52.5517 32.8313 52.5817 32.8105C52.6324 32.7667 52.6855 32.7229 52.7362 32.6767C52.8538 32.566 52.9599 32.4461 53.0637 32.3216C53.0844 32.2939 53.1029 32.2639 53.1236 32.2363C53.1721 32.1625 53.2205 32.0887 53.2643 32.0125C53.3519 31.8649 53.4304 31.7104 53.5018 31.5536C53.5111 31.5282 53.5226 31.5029 53.5318 31.4775C53.5618 31.3991 53.5895 31.3184 53.6171 31.2377C53.7325 30.8894 53.8201 30.5296 53.8824 30.1676C53.8962 30.0845 53.91 30.0015 53.9216 29.9185C53.9239 29.8977 53.9262 29.8747 53.9285 29.8539C53.9492 29.674 53.9654 29.4941 53.9769 29.312C54.0184 28.6639 54.0092 28.0135 53.9654 27.3678C53.9239 26.7636 54.5973 26.2977 55.1507 26.4638C55.379 26.5329 55.6142 26.5791 55.8472 26.6229C55.9532 26.6436 56.0616 26.6598 56.17 26.6759C56.1723 26.6759 56.1769 26.6759 56.1815 26.6782C56.2231 26.6828 56.2623 26.6875 56.3038 26.6921C56.5736 26.7221 56.8434 26.7405 57.1132 26.7451C57.413 26.752 57.7128 26.7405 58.0103 26.7128C58.0518 26.7082 58.0956 26.7036 58.1371 26.699C58.1441 26.699 58.151 26.6967 58.1556 26.6967C58.1902 26.6921 58.2248 26.6852 58.2594 26.6805C58.4162 26.6529 58.573 26.6206 58.7275 26.5791C58.8843 26.5376 59.0388 26.4914 59.191 26.4361C59.2371 26.4199 59.281 26.4015 59.3271 26.3853C59.3501 26.3761 59.3617 26.3715 59.3709 26.3692C59.4032 26.3508 59.4332 26.3323 59.4516 26.3231C59.6015 26.2493 59.7445 26.1663 59.8852 26.074C59.959 26.0256 60.0281 25.9702 60.0996 25.9218C59.816 26.1109 60.072 25.9402 60.1458 25.8757C60.2795 25.7581 60.404 25.6312 60.5193 25.4974C60.5401 25.4721 60.5609 25.4467 60.5816 25.4213C60.6323 25.3498 60.6831 25.2761 60.7315 25.2023C60.8376 25.0339 60.9345 24.8563 61.0175 24.6741C61.0221 24.6649 61.0267 24.6557 61.029 24.6465C61.0428 24.6142 61.0544 24.5796 61.0682 24.5473C61.1051 24.4458 61.1397 24.3443 61.172 24.2406C61.3288 23.7401 61.8154 23.4703 62.325 23.5856C62.807 23.6963 63.1253 24.2705 62.98 24.7387C62.6686 25.7373 62.1244 26.6898 61.2965 27.347C60.0673 28.3226 58.5176 28.6731 56.9702 28.6155C56.6105 28.6016 56.2438 28.5717 55.8794 28.5232C55.8771 29.8954 55.6811 31.2792 55.1069 32.5314C54.7448 33.3202 54.1752 33.9982 53.4534 34.4802C52.6255 35.0337 51.5855 35.2436 50.6008 35.2159C49.6184 35.1905 48.6267 34.9784 47.7873 34.4456C47.25 34.1043 46.7887 33.6592 46.4059 33.1518C46.3621 33.7491 46.3736 34.4387 46.5651 34.9368C46.9778 36.0139 47.5244 36.3252 47.5244 36.3252C47.5244 36.3252 47.8334 36.6896 47.5244 37.2177C47.3999 37.4299 47.0793 37.9511 46.8003 38.5853C48.1401 37.6098 49.736 37.0678 51.4148 37.0678C53.5226 37.0678 55.5289 37.9188 57.0648 39.464C57.6252 40.0267 58.1002 40.6678 58.4877 41.3643C58.822 41.2997 59.168 41.2282 59.53 41.1498C64.2276 40.1328 65.3484 36.5904 65.6159 34.9092C64.8018 34.8285 64.0039 34.6048 63.2498 34.2219C62.7032 33.9452 62.1405 33.5762 61.7208 33.1218C61.3657 32.7367 61.3657 32.1832 61.7208 31.7958C62.0529 31.4337 62.7125 31.4337 63.0468 31.7958C63.1575 31.9157 63.2844 32.0195 63.4112 32.1209C63.4389 32.1417 63.4643 32.1601 63.4919 32.1786C63.5657 32.2293 63.6395 32.2801 63.7156 32.3285C63.9001 32.4461 64.0915 32.5522 64.2875 32.6468C64.3429 32.6744 64.4005 32.6998 64.4559 32.7252C64.5712 32.769 64.6865 32.8128 64.8064 32.8497C65.0808 32.9373 65.3599 33.0042 65.6435 33.0504C65.6458 33.0504 65.6458 33.0504 65.6481 33.0504C65.6666 33.0527 65.6827 33.055 65.7012 33.0573C65.7773 33.0642 65.8511 33.0711 65.9272 33.0757C66.084 33.0849 66.2431 33.0896 66.3999 33.0849C66.5821 33.0803 66.7643 33.0665 66.9465 33.048C66.9696 33.0457 66.9903 33.0411 67.0134 33.0365C67.1125 33.0204 67.2094 33.0019 67.3085 32.9812C67.7144 32.8935 68.1134 32.769 68.4985 32.6145C68.51 32.6099 68.5146 32.6076 68.5239 32.6052C68.5308 32.6029 68.5331 32.6006 68.5423 32.596C68.593 32.573 68.6438 32.5499 68.6922 32.5268C68.796 32.4784 68.8975 32.4277 68.9989 32.3769C69.1765 32.2847 69.3495 32.1832 69.5224 32.0817C69.8061 31.0001 70.0574 29.2981 69.4348 27.8475Z" fill="white"/>
<path d="M69.4002 34.2703C68.7937 34.5425 68.1618 34.75 67.5115 34.8584C67.5092 34.8584 67.5069 34.8584 67.5046 34.8584C67.2394 36.8279 65.9757 41.6826 59.9267 42.9925C59.6915 43.0432 59.4632 43.0917 59.2395 43.1355C59.5162 44.0326 59.6615 44.9805 59.6546 45.9399C59.65 46.754 59.5162 47.5865 59.2603 48.4329C61.9861 48.0823 63.8494 46.5441 64.3891 46.0459C65.1731 45.3218 66.1901 43.5644 66.1256 41.6157C66.1256 41.6157 65.9272 41.0299 66.5291 40.7877C67.131 40.5456 68.7707 39.7592 69.3633 37.8473C69.8084 36.4151 69.6378 35.3266 69.4002 34.2703Z" fill="white"/>
<path d="M51.4148 39.2656C49.367 39.2656 47.4737 40.398 46.3506 42.2914L45.4097 43.8781L44.4688 42.2914C43.3457 40.3957 41.4524 39.2656 39.4046 39.2656C37.7972 39.2656 36.2821 39.9552 35.1429 41.2075C33.9991 42.4667 33.3603 44.1433 33.3511 45.9329C33.3418 47.4735 33.9668 49.1594 35.2098 50.9421C36.2199 52.3927 37.6335 53.9056 39.4138 55.4415C42.0958 57.7547 44.734 59.376 45.4097 59.7795C46.0808 59.376 48.7075 57.7501 51.3733 55.4415C53.1467 53.9056 54.5604 52.3927 55.5751 50.9421C56.8227 49.1571 57.4615 47.4689 57.4707 45.9283C57.4822 44.0695 56.7696 42.2799 55.5151 41.0184C54.392 39.886 52.9369 39.2656 51.4148 39.2656Z" fill="white"/>
</svg>
