<svg width="319" height="92" viewBox="0 0 319 92" fill="none" xmlns="http://www.w3.org/2000/svg">
<path d="M44.4569 80.5977C44.4569 80.5977 45.2156 67.9941 38.1888 63.0565C31.1598 58.1165 30.7816 57.5469 28.8814 55.838C26.9811 54.1291 25.0832 53.9376 24.1331 55.0792C23.183 56.2185 23.7526 58.8776 26.792 61.1585C29.8315 63.437 31.5403 65.7179 31.9208 68.1878C31.9208 68.1878 32.1099 66.8571 27.5531 65.9093C22.9939 64.9591 19.0066 59.2604 17.2955 56.0317C15.5866 52.803 15.2061 50.333 13.1168 50.1439C11.0274 49.9548 11.7862 52.6139 12.1667 54.7033C12.5472 56.7928 15.3952 67.0509 22.2328 72.9387C25.4614 75.5977 33.6297 77.3067 34.1993 80.7268L34.25 88.8394L44.3277 91.2922L44.4569 80.5977Z" fill="white"/>
<path d="M47.3579 80.5977C47.3579 80.5977 46.5992 67.9941 53.6259 63.0565C60.655 58.1165 61.0332 57.5469 62.9334 55.838C64.8336 54.1291 66.7316 53.9376 67.6817 55.0792C68.6318 56.2185 68.0622 58.8776 65.0227 61.1585C61.9833 63.437 60.2745 65.7179 59.894 68.1878C59.894 68.1878 59.7048 66.8571 64.2617 65.9093C68.8209 64.9591 72.8082 59.2604 74.5193 56.0317C76.2305 52.803 76.6087 50.333 78.698 50.1439C80.7873 49.9548 80.0286 52.6139 79.6481 54.7033C79.2676 56.7928 76.4196 67.0509 69.5819 72.9387C66.3534 75.5977 58.1851 77.3067 57.6155 80.7268L57.5648 88.8393L47.4871 91.2922L47.3579 80.5977Z" fill="white"/>
<path d="M45.9074 91.3193C20.8699 91.3193 0.5 70.9484 0.5 45.9097C0.5 20.8709 20.8699 0.5 45.9074 0.5C70.9449 0.5 91.3148 20.8709 91.3148 45.9097C91.3148 70.9484 70.9449 91.3193 45.9074 91.3193ZM45.9074 2.37496C21.903 2.37496 2.37487 21.9041 2.37487 45.9097C2.37487 69.9152 21.903 89.4444 45.9074 89.4444C69.9117 89.4444 89.4399 69.9152 89.4399 45.9097C89.4399 21.9041 69.9117 2.37496 45.9074 2.37496Z" fill="white"/>
<path d="M66.787 27.1715C66.8262 27.1669 66.8769 27.1554 66.8839 27.1531C66.8562 27.1577 66.8308 27.1646 66.8031 27.1692C66.7985 27.1692 66.7939 27.1715 66.787 27.1715Z" fill="white"/>
<path d="M66.7527 27.1762C66.7387 27.1785 66.7294 27.1808 66.7131 27.1832C66.7387 27.1785 66.7644 27.1762 66.79 27.1715C66.7853 27.1715 66.7783 27.1738 66.776 27.1738C66.7667 27.1738 66.7597 27.1762 66.7527 27.1762Z" fill="white"/>
<path d="M47.8099 30.8546C47.8216 30.8848 47.8356 30.915 47.8472 30.9452C47.8402 30.9243 47.8356 30.9127 47.8286 30.8964C47.8262 30.8918 47.8239 30.8894 47.8216 30.8848C47.8193 30.8755 47.8146 30.8662 47.8099 30.8546Z" fill="white"/>
<path d="M49.7102 32.9579C49.7288 32.9672 49.7614 32.9858 49.7801 32.9881C49.7917 32.9904 49.7521 32.9741 49.7102 32.9579Z" fill="white"/>
<path d="M53.0979 32.6723C53.1026 32.67 53.1072 32.6654 53.1095 32.663C53.1212 32.6537 53.1631 32.6305 53.1678 32.6189C53.1724 32.6096 53.1352 32.6398 53.0979 32.6723Z" fill="white"/>
<path d="M59.795 26.2767C59.788 26.279 59.781 26.2814 59.774 26.2837C59.781 26.2814 59.788 26.2814 59.795 26.2767Z" fill="white"/>
<path d="M64.4993 16.1639C64.5062 16.1754 64.5131 16.2331 64.52 16.2792C64.5177 16.2354 64.5131 16.1916 64.4993 16.1639Z" fill="white"/>
<path d="M64.0457 19.3419C64.0457 19.3419 64.0038 19.3977 63.9712 19.4395C64.0108 19.4 64.048 19.3582 64.0457 19.3419Z" fill="white"/>
<path d="M49.8809 17.414C49.8832 17.4116 49.8879 17.407 49.8902 17.4047C49.8646 17.4256 49.853 17.4349 49.8809 17.414Z" fill="white"/>
<path d="M49.9131 17.3867C49.9154 17.3844 49.9201 17.382 49.9224 17.3797C49.9364 17.3704 49.9853 17.3402 49.9899 17.3309C49.9923 17.3216 49.9503 17.3565 49.9131 17.3867Z" fill="white"/>
<path d="M53.2271 16.2331C53.2317 16.2447 53.2434 16.2563 53.2527 16.268C53.2387 16.247 53.2294 16.2331 53.2271 16.2331Z" fill="white"/>
<path d="M32.8456 41.2396C33.1753 40.6492 33.5697 40.098 34.0263 39.5953C35.5852 37.8817 37.6723 36.9385 39.9046 36.9385C41.5811 36.9385 43.1723 37.4781 44.5122 38.4514C44.2331 37.8195 43.9149 37.3006 43.7904 37.0884C43.4814 36.5603 43.7904 36.1959 43.7904 36.1959C43.7904 36.1959 44.3369 35.8868 44.7497 34.8075C44.9411 34.3094 44.9503 33.6221 44.9088 33.0225C44.5283 33.5299 44.0671 33.9727 43.5275 34.3163C42.6904 34.849 41.6964 35.0612 40.714 35.0866C39.7293 35.112 38.6893 34.9044 37.8614 34.3509C37.1418 33.8689 36.5699 33.1886 36.2079 32.4021C35.6336 31.1499 35.4376 29.7661 35.4353 28.3939C35.071 28.4423 34.7043 28.4723 34.3445 28.4862C32.7971 28.5415 31.2474 28.191 30.0183 27.2177C29.1904 26.5605 28.6461 25.608 28.3348 24.6094C28.1895 24.1412 28.5078 23.567 28.9897 23.4563C29.4994 23.341 29.986 23.6108 30.1428 24.1112C30.1751 24.215 30.2097 24.3165 30.2466 24.418C30.2581 24.4503 30.2719 24.4849 30.2858 24.5171C30.2904 24.5264 30.295 24.5356 30.2973 24.5448C30.3803 24.727 30.4772 24.9046 30.5833 25.0729C30.6317 25.1467 30.6801 25.2205 30.7332 25.292C30.7539 25.3174 30.7747 25.3428 30.7954 25.3681C30.9107 25.5019 31.0353 25.6287 31.169 25.7464C31.2428 25.8109 31.5011 25.9816 31.2151 25.7925C31.2889 25.8409 31.3558 25.8963 31.4296 25.9447C31.568 26.0369 31.7133 26.12 31.8632 26.1938C31.8839 26.203 31.9139 26.2214 31.9439 26.2399C31.9531 26.2422 31.9646 26.2468 31.9877 26.256C32.0338 26.2722 32.0776 26.2906 32.1237 26.3068C32.2759 26.3621 32.4305 26.4106 32.5873 26.4498C32.7418 26.489 32.8986 26.5236 33.0554 26.5512C33.09 26.5582 33.1246 26.5628 33.1592 26.5674C33.1638 26.5674 33.1707 26.5697 33.1776 26.5697C33.2192 26.5743 33.263 26.5789 33.3045 26.5835C33.602 26.6112 33.9018 26.6227 34.2016 26.6158C34.4714 26.6112 34.7435 26.5927 35.011 26.5628C35.0525 26.5582 35.0917 26.5535 35.1332 26.5489C35.1378 26.5489 35.1401 26.5489 35.1448 26.5466C35.2531 26.5305 35.3592 26.512 35.4676 26.4936C35.7005 26.4498 35.9357 26.4036 36.1641 26.3344C36.7175 26.1684 37.3932 26.632 37.3494 27.2385C37.3056 27.8865 37.2941 28.5369 37.3379 29.1826C37.3494 29.3625 37.3655 29.5447 37.3863 29.7246C37.3886 29.7454 37.3909 29.7684 37.3932 29.7892C37.4047 29.8722 37.4186 29.9552 37.4324 30.0383C37.497 30.4003 37.5823 30.7578 37.6976 31.1083C37.7253 31.1891 37.753 31.2698 37.7829 31.3482C37.7922 31.3736 37.8037 31.3989 37.8129 31.4243C37.8844 31.5811 37.9628 31.7356 38.0505 31.8832C38.0943 31.9593 38.1427 32.0331 38.1911 32.1069C38.2096 32.1346 38.2303 32.1646 38.2511 32.1923C38.3549 32.3145 38.4609 32.4367 38.5786 32.5474C38.6293 32.5936 38.68 32.6351 38.7331 32.6812C38.763 32.7019 38.793 32.7227 38.823 32.7435C38.9683 32.838 39.1182 32.9164 39.275 32.9925C39.3096 33.0041 39.3419 33.0179 39.3765 33.0294C39.4779 33.064 39.5817 33.094 39.6855 33.1217C39.78 33.1447 39.8769 33.1655 39.9738 33.1816C39.9807 33.1839 39.9899 33.1839 40.0014 33.1863C40.0452 33.1909 40.1006 33.1978 40.119 33.2001C40.352 33.2209 40.5849 33.2232 40.8178 33.2139C40.9492 33.2093 41.0784 33.1978 41.2098 33.1863C41.2214 33.1839 41.2467 33.1816 41.2721 33.1793C41.3021 33.1747 41.3367 33.1701 41.3505 33.1678C41.5465 33.1332 41.7379 33.0848 41.927 33.0248C41.9985 33.0018 42.0677 32.9741 42.1369 32.9487C42.1715 32.9326 42.2061 32.9164 42.2384 32.9003C42.3998 32.8196 42.5543 32.7273 42.7019 32.6258C42.7249 32.6097 42.7457 32.5959 42.7665 32.5797C42.8287 32.5267 42.891 32.4759 42.951 32.4206C43.0801 32.303 43.2 32.1761 43.313 32.0424C43.3315 32.0216 43.3476 32.0009 43.3661 31.9778C43.4099 31.9178 43.4514 31.8602 43.4929 31.8002C43.6843 31.5165 43.848 31.2121 43.9887 30.9008C44.0671 30.6932 44.0371 30.7878 44.0071 30.8593C44.0118 30.85 44.0141 30.8431 44.0187 30.8339C44.051 30.7509 44.0832 30.6679 44.1132 30.5848C44.1732 30.4165 44.2285 30.2481 44.277 30.0775C44.3738 29.7407 44.4522 29.3994 44.5168 29.0535C44.5468 28.8921 44.5721 28.7329 44.5952 28.5715C44.5952 28.5669 44.5975 28.56 44.5975 28.5553C44.609 28.47 44.6183 28.3847 44.6275 28.2994C44.7151 27.4714 44.7151 26.6504 44.6828 25.8202C44.6828 25.8063 44.6805 25.7925 44.6805 25.7786C44.6667 25.6311 43.8803 21.0001 43.539 19.9508C42.017 19.8424 40.6702 18.9891 39.6947 17.8245C39.5886 17.9398 39.4826 18.0528 39.3672 18.1589C38.4563 18.9983 37.3425 19.5518 36.1733 19.9324C35.7074 20.0846 35.1286 19.7548 35.0202 19.2774C34.9026 18.7631 35.1747 18.288 35.6752 18.1243C35.802 18.0828 35.9288 18.0389 36.0534 17.9951C36.1179 17.9721 36.1825 17.9467 36.2471 17.9213C36.2678 17.9144 36.3324 17.8867 36.3716 17.8706C36.4016 17.8567 36.4339 17.8429 36.4454 17.8383C36.4961 17.8152 36.5446 17.7922 36.5953 17.7691C36.7152 17.7115 36.8328 17.6515 36.9504 17.5892C37.1465 17.4831 37.3402 17.3678 37.5247 17.2433C37.6054 17.1903 37.6838 17.1326 37.7622 17.0749C37.7968 17.0473 37.8314 17.0196 37.8637 16.9919C38.0089 16.8697 38.1496 16.7382 38.2811 16.6022C38.3456 16.5353 38.4079 16.4638 38.4702 16.3946C38.4932 16.3692 38.514 16.3416 38.5347 16.3162C38.7192 16.0602 38.8853 15.795 39.0213 15.509C39.0306 15.4883 39.0398 15.4698 39.049 15.449C39.0721 15.3891 39.0951 15.3291 39.1159 15.2692C39.162 15.1354 39.2035 14.997 39.2381 14.8587C39.2704 14.7272 39.3004 14.5934 39.3211 14.4597C39.3234 14.4481 39.3257 14.4366 39.3257 14.4251C39.3303 14.379 39.3373 14.3328 39.3396 14.2844C39.3603 14.0538 39.3649 13.8232 39.3557 13.5925C39.3511 13.4911 39.3465 13.3919 39.3373 13.2927C39.335 13.2604 39.3303 13.2281 39.328 13.1959C39.3004 13.0183 39.2704 12.8384 39.215 12.6654C39.0675 12.1973 39.388 11.623 39.87 11.5123C40.3796 11.397 40.8662 11.6668 41.023 12.1673C41.0738 12.331 41.1061 12.504 41.1337 12.6747C41.2121 13.1728 41.2583 13.6709 41.2237 14.176C41.1775 14.8563 41.0207 15.5182 40.7648 16.1363C40.8247 16.2309 40.887 16.3254 40.9539 16.4154C40.9677 16.4338 41 16.4776 41.0253 16.5122C41.0553 16.5491 41.083 16.5837 41.113 16.6183C41.3551 16.9066 41.6272 17.158 41.9132 17.4001C41.9524 17.4278 41.9916 17.4578 42.0308 17.4831C42.1254 17.5477 42.2222 17.6077 42.3191 17.6653C42.4067 17.7161 42.499 17.7645 42.5889 17.8106C42.6235 17.8268 42.6604 17.8452 42.6973 17.8614C42.7111 17.866 42.7249 17.8729 42.7365 17.8775C42.9809 17.9674 43.23 18.0297 43.486 18.0758C43.5044 18.0781 43.5206 18.0805 43.539 18.0805C43.6151 18.0874 43.6935 18.092 43.7696 18.0943C43.9195 18.0989 44.0671 18.092 44.217 18.0805C46.6569 14.741 44.9872 11.0418 43.4721 9.65119C41.8233 8.13599 38.5301 10.1078 38.5301 10.1078C38.5301 10.1078 37.8752 10.4514 36.789 11.5792C35.7051 12.7092 35.1724 12.4648 35.1724 12.4648C30.4587 12.504 28.3233 14.4066 27.3639 15.9449C27.3478 16.0394 27.3247 16.1317 27.3109 16.2262C27.3063 16.2539 27.3017 16.2839 27.297 16.3116C27.2947 16.3254 27.2947 16.3323 27.2924 16.3416C27.2924 16.3577 27.2924 16.3738 27.2901 16.3854C27.274 16.5307 27.2625 16.6783 27.2532 16.8259C27.2348 17.128 27.2348 17.4301 27.2555 17.7322C27.2602 17.8014 27.2671 17.8683 27.274 17.9375C27.274 17.9444 27.274 17.949 27.2763 17.9559C27.2763 17.9651 27.2786 17.9744 27.2786 17.9836C27.304 18.1358 27.3316 18.2857 27.3708 18.4356C27.41 18.5901 27.4585 18.7423 27.5161 18.8899C27.5184 18.8969 27.5231 18.9038 27.5254 18.9084C27.5599 18.9822 27.5968 19.0537 27.636 19.1229C27.6729 19.1898 27.7121 19.2543 27.7537 19.3189C27.7744 19.3489 27.7929 19.3789 27.8136 19.4065C27.8251 19.4227 27.839 19.4388 27.8505 19.4573C27.8528 19.4596 27.8528 19.4596 27.8551 19.4619C27.8851 19.4919 27.9128 19.5195 27.922 19.5288C27.9797 19.591 28.0396 19.6487 28.1019 19.7063C28.1273 19.7294 28.1526 19.7502 28.1803 19.7732C28.2541 19.8263 28.3302 19.8747 28.4063 19.9208C28.4962 19.9739 28.5885 20.02 28.683 20.0661C28.7199 20.08 28.7545 20.0938 28.7914 20.1076C29.0174 20.186 29.248 20.2437 29.4832 20.2852C29.4971 20.2875 29.534 20.2944 29.5686 20.299C29.6101 20.3037 29.6631 20.3106 29.6839 20.3129C29.8292 20.3267 29.9768 20.3336 30.1243 20.3383C30.6132 20.3521 31.0837 20.7603 31.0606 21.2746C31.0376 21.7704 30.6478 22.2271 30.1243 22.2109C29.1281 22.1832 28.0627 21.9826 27.2348 21.3922C26.4899 20.8618 25.9803 20.1538 25.6759 19.2958C25.5882 19.0468 25.526 18.7908 25.4775 18.5302C22.5049 20.5873 22.5049 24.0674 22.6756 25.6195C22.6756 25.6218 22.6779 25.6241 22.6779 25.6287C22.7471 25.7602 22.807 25.894 22.8855 26.0208C22.92 26.0762 22.9592 26.1315 22.9961 26.1845C23.0146 26.2076 23.0353 26.2307 23.0538 26.2514C23.1599 26.3713 23.2775 26.4751 23.3974 26.5789C23.4343 26.6043 23.4712 26.6296 23.5104 26.655C23.598 26.7127 23.688 26.7634 23.7802 26.8118C23.8333 26.8395 23.8863 26.8672 23.9417 26.8926C23.9417 26.8926 23.944 26.8926 23.944 26.8949C24.0477 26.9341 24.1492 26.9733 24.2553 27.0056C24.4767 27.0747 24.7027 27.1255 24.931 27.1647C24.9264 27.1624 24.9586 27.167 25.0624 27.1878C25.1201 27.1947 25.1777 27.1993 25.2377 27.2062C25.4106 27.22 25.5813 27.2293 25.7543 27.2339C26.2432 27.2454 26.7136 27.6559 26.6905 28.1702C26.6675 28.6684 26.2777 29.1204 25.7543 29.1065C24.6635 29.0789 23.5127 28.8828 22.5764 28.2832C22.3181 28.1172 22.0875 27.9281 21.88 27.7182C21.255 29.1688 21.5087 30.8731 21.7924 31.964C21.9653 32.0654 22.1383 32.1692 22.3158 32.2592C22.4173 32.3122 22.5188 32.3606 22.6226 32.4091C22.6733 32.4321 22.724 32.4552 22.7725 32.4782C22.7817 32.4829 22.784 32.4852 22.7909 32.4875C22.8001 32.4921 22.8047 32.4921 22.8163 32.4967C23.2014 32.6512 23.6003 32.778 24.0062 32.8634C24.1031 32.8841 24.2022 32.9026 24.3014 32.9187C24.3245 32.9233 24.3452 32.9257 24.3683 32.9303C24.5505 32.9464 24.7327 32.9626 24.9148 32.9672C25.0716 32.9695 25.2308 32.9672 25.3876 32.9579C25.4637 32.9533 25.5398 32.9464 25.6136 32.9395C25.632 32.9372 25.6482 32.9349 25.6666 32.9326C25.6689 32.9326 25.6689 32.9326 25.6712 32.9326C25.9549 32.8864 26.2362 32.8196 26.5084 32.7319C26.626 32.6927 26.7413 32.6512 26.8589 32.6074C26.9142 32.582 26.9719 32.5567 27.0272 32.529C27.2233 32.4344 27.4147 32.326 27.5991 32.2107C27.6753 32.1623 27.749 32.1139 27.8228 32.0608C27.8505 32.0424 27.8759 32.0216 27.9036 32.0032C28.0304 31.8994 28.1572 31.7979 28.2679 31.678C28.6 31.3159 29.2596 31.3159 29.5939 31.678C29.9491 32.0654 29.9491 32.6189 29.5939 33.0041C29.1742 33.4584 28.6115 33.8274 28.065 34.1041C27.3109 34.487 26.5153 34.7084 25.6989 34.7914C25.9664 36.4726 27.0872 40.015 31.7847 41.032C32.1537 41.1035 32.5066 41.175 32.8456 41.2396Z" fill="white"/>
<path d="M31.6649 45.7782C31.6718 44.8211 31.8194 43.8848 32.0915 42.9992C31.8609 42.9531 31.628 42.9046 31.3858 42.8516C25.3346 41.5416 24.0709 36.687 23.808 34.7175C23.8056 34.7175 23.8033 34.7175 23.801 34.7175C23.1507 34.6091 22.5165 34.4016 21.9123 34.1294C21.6748 35.1857 21.5065 36.2742 21.9492 37.7087C22.5419 39.6206 24.1815 40.407 24.7834 40.6491C25.3853 40.8913 25.187 41.4771 25.187 41.4771C25.1224 43.4235 26.1371 45.1832 26.9235 45.9073C27.4631 46.4055 29.3196 47.9368 32.0362 48.292C31.7848 47.441 31.658 46.5992 31.6649 45.7782Z" fill="white"/>
<path d="M69.9348 27.7089C69.7272 27.9164 69.4966 28.1079 69.2383 28.2739C68.3021 28.8735 67.1536 29.0696 66.0605 29.0972C65.5347 29.1111 65.145 28.6567 65.1242 28.1609C65.1012 27.6466 65.5716 27.2361 66.0605 27.2246C66.2335 27.22 66.4064 27.213 66.5771 27.1969C66.6347 27.1923 66.6924 27.1854 66.7523 27.1785C66.8561 27.16 66.8884 27.1554 66.8838 27.1554C67.1121 27.1162 67.3381 27.0654 67.5595 26.9963C67.6656 26.964 67.767 26.9248 67.8708 26.8856C67.8708 26.8856 67.8731 26.8856 67.8731 26.8833C67.9285 26.8579 67.9815 26.8302 68.0345 26.8025C68.1268 26.7541 68.2167 26.7011 68.3044 26.6457C68.3413 26.6203 68.3805 26.595 68.4174 26.5696C68.5373 26.4658 68.6549 26.3597 68.761 26.2421C68.7817 26.2191 68.8002 26.196 68.8186 26.1752C68.8555 26.1199 68.8947 26.0668 68.9293 26.0115C69.0077 25.8847 69.0677 25.7509 69.1369 25.6194C69.1369 25.6171 69.1392 25.6148 69.1392 25.6102C69.3098 24.0581 69.3098 20.5757 66.3372 18.5209C66.2888 18.7815 66.2265 19.0375 66.1389 19.2865C65.8345 20.1445 65.3249 20.8548 64.58 21.3829C63.7521 21.971 62.6867 22.1739 61.6904 22.2016C61.1646 22.2154 60.7749 21.7611 60.7541 21.2653C60.7311 20.7487 61.2015 20.3405 61.6904 20.3289C61.838 20.3243 61.9833 20.3174 62.1309 20.3036C62.1516 20.3013 62.2047 20.2967 62.2462 20.2897C62.2808 20.2851 62.3154 20.2782 62.3315 20.2759C62.5667 20.2344 62.7974 20.1767 63.0234 20.0983C63.0603 20.0845 63.0949 20.0707 63.1318 20.0568C63.2263 20.0107 63.3185 19.9646 63.4085 19.9115C63.4869 19.8654 63.5607 19.817 63.6345 19.7639C63.6599 19.7432 63.6875 19.7201 63.7129 19.697C63.7752 19.6417 63.8351 19.5817 63.8928 19.5195C63.902 19.5102 63.932 19.4826 63.9596 19.4526C63.962 19.4503 63.9619 19.4503 63.9643 19.448C63.9758 19.4318 63.9873 19.4157 64.0012 19.3972C64.0219 19.3673 64.0427 19.3396 64.0611 19.3096C64.1026 19.245 64.1418 19.1804 64.1787 19.1136C64.2179 19.0421 64.2548 18.9706 64.2894 18.8991C64.2917 18.8945 64.294 18.8876 64.2986 18.8806C64.3563 18.733 64.4047 18.5808 64.4439 18.4263C64.4831 18.2764 64.5108 18.1265 64.5362 17.9743C64.5362 17.9651 64.5385 17.9558 64.5385 17.9466C64.5385 17.9397 64.5385 17.9351 64.5408 17.9282C64.5477 17.859 64.5546 17.7921 64.5592 17.7229C64.58 17.4208 64.58 17.1187 64.5615 16.8166C64.5523 16.669 64.5408 16.5237 64.5246 16.3761C64.5223 16.3622 64.5223 16.3484 64.5223 16.3323C64.52 16.3253 64.52 16.3184 64.5177 16.3023C64.5131 16.2746 64.5085 16.2446 64.5039 16.2169C64.49 16.1224 64.467 16.0301 64.4508 15.9356C63.4938 14.395 61.3583 12.4947 56.6423 12.4555C56.6423 12.4555 56.1119 12.6999 55.0258 11.5699C53.9419 10.4398 53.2846 10.0985 53.2846 10.0985C53.2846 10.0985 49.9915 8.129 48.3426 9.64188C46.8275 11.0325 45.1579 14.7317 47.5978 18.0712C47.7477 18.0827 47.8953 18.0896 48.0452 18.085C48.1213 18.0827 48.1997 18.0781 48.2758 18.0712C48.2919 18.0688 48.3104 18.0688 48.3288 18.0665C48.5848 18.0204 48.8338 17.9605 49.0783 17.8682C49.0921 17.8636 49.106 17.859 49.1175 17.8521C49.1544 17.8359 49.1913 17.8198 49.2259 17.8013C49.3181 17.7575 49.4081 17.7091 49.4957 17.656C49.5949 17.5984 49.6917 17.5384 49.784 17.4738C49.8232 17.4462 49.8624 17.4185 49.9016 17.3908C50.1898 17.1487 50.4597 16.8973 50.7018 16.609C50.7318 16.5744 50.7618 16.5375 50.7894 16.5029C50.8148 16.4683 50.8471 16.4245 50.8609 16.4061C50.9255 16.3138 50.9901 16.2216 51.05 16.127C50.794 15.5089 50.6372 14.847 50.5911 14.1667C50.5565 13.6639 50.6026 13.1635 50.681 12.6654C50.7087 12.4947 50.7387 12.3217 50.7917 12.158C50.9485 11.6575 51.4351 11.3877 51.9448 11.503C52.4268 11.6137 52.7473 12.188 52.5997 12.6561C52.5467 12.8291 52.5144 13.009 52.4867 13.1866C52.4821 13.2188 52.4798 13.2511 52.4775 13.2834C52.4683 13.3826 52.4614 13.4841 52.4591 13.5832C52.4498 13.8139 52.4544 14.0445 52.4752 14.2751C52.4798 14.3212 52.4844 14.3673 52.489 14.4158C52.4913 14.4273 52.4936 14.4388 52.4936 14.4504C52.5167 14.5841 52.5444 14.7179 52.5767 14.8493C52.6113 14.9877 52.6528 15.1238 52.6989 15.2599C52.7196 15.3198 52.7427 15.3798 52.7658 15.4397C52.775 15.4605 52.7842 15.479 52.7934 15.4997C52.9295 15.7857 53.0955 16.0509 53.28 16.3069C53.3008 16.3323 53.3238 16.3599 53.3446 16.3853C53.4046 16.4568 53.4691 16.526 53.5337 16.5929C53.6651 16.7312 53.8058 16.8604 53.9511 16.9826C53.9857 17.0103 54.0203 17.038 54.0526 17.0656C54.131 17.1233 54.2094 17.1786 54.2901 17.234C54.4769 17.3585 54.6683 17.4738 54.8643 17.5799C54.9819 17.6422 55.0995 17.7022 55.2195 17.7598C55.2702 17.7829 55.3186 17.8059 55.3694 17.829C55.3809 17.8336 55.4132 17.8474 55.4432 17.8613C55.4801 17.8774 55.5469 17.9028 55.5677 17.912C55.6323 17.9374 55.6968 17.9628 55.7614 17.9858C55.8859 18.0319 56.0128 18.0735 56.1396 18.115C56.6377 18.2787 56.9122 18.7538 56.7945 19.2681C56.6862 19.7455 56.1073 20.0753 55.6415 19.9231C54.4723 19.5425 53.3561 18.989 52.4475 18.1496C52.3322 18.0435 52.2238 17.9305 52.1201 17.8152C51.1446 18.9821 49.7978 19.8331 48.2758 19.9415C47.9345 20.9908 47.1481 25.6217 47.1342 25.7693C47.1319 25.7832 47.1319 25.797 47.1319 25.8109C47.0996 26.6411 47.0996 27.4621 47.1873 28.2901C47.1965 28.3754 47.2057 28.4607 47.2173 28.546C47.2173 28.5507 47.2196 28.5576 47.2196 28.5622C47.2426 28.7236 47.268 28.8851 47.298 29.0442C47.3625 29.3901 47.441 29.7314 47.5378 30.0682C47.5862 30.2388 47.6416 30.4095 47.7015 30.5755C47.7315 30.6586 47.7638 30.7439 47.7961 30.8246C47.7984 30.8338 47.803 30.8407 47.8076 30.85C47.7776 30.7762 47.7477 30.6816 47.8261 30.8915C47.9667 31.2051 48.1282 31.5072 48.3219 31.7909C48.3634 31.8509 48.4072 31.9108 48.4487 31.9685C48.4672 31.9892 48.4833 32.0123 48.5018 32.0331C48.6148 32.1668 48.7347 32.2937 48.8638 32.4113C48.9238 32.4666 48.986 32.5174 49.0483 32.5704C49.0691 32.5866 49.0921 32.6027 49.1129 32.6165C49.2605 32.718 49.415 32.8103 49.5764 32.891C49.611 32.9071 49.6433 32.9233 49.6779 32.9394C49.7471 32.9648 49.8186 32.9925 49.8877 33.0155C50.0768 33.0778 50.2682 33.1239 50.4643 33.1585C50.4781 33.1608 50.5104 33.1654 50.5427 33.17C50.568 33.1723 50.5934 33.177 50.6049 33.177C50.7341 33.1908 50.8655 33.2 50.997 33.2046C51.2299 33.2139 51.4628 33.2115 51.6957 33.1908C51.7142 33.1885 51.7718 33.1839 51.8133 33.177C51.8249 33.1746 51.8341 33.1747 51.841 33.1723C51.9379 33.1562 52.0347 33.1354 52.1293 33.1124C52.2331 33.087 52.3368 33.057 52.4383 33.0201C52.4729 33.0086 52.5052 32.9948 52.5398 32.9832C52.6943 32.9094 52.8465 32.831 52.9918 32.7342C53.0217 32.7134 53.0517 32.6926 53.0817 32.6719C53.1324 32.6281 53.1855 32.5843 53.2362 32.5381C53.3538 32.4274 53.4599 32.3075 53.5637 32.183C53.5844 32.1553 53.6029 32.1253 53.6236 32.0976C53.6721 32.0238 53.7205 31.95 53.7643 31.8739C53.8519 31.7263 53.9304 31.5718 54.0018 31.415C54.0111 31.3896 54.0226 31.3643 54.0318 31.3389C54.0618 31.2605 54.0895 31.1798 54.1171 31.099C54.2325 30.7508 54.3201 30.391 54.3824 30.029C54.3962 29.9459 54.41 29.8629 54.4216 29.7799C54.4239 29.7591 54.4262 29.7361 54.4285 29.7153C54.4492 29.5354 54.4654 29.3555 54.4769 29.1733C54.5184 28.5253 54.5092 27.8749 54.4654 27.2292C54.4239 26.625 55.0973 26.1591 55.6507 26.3251C55.879 26.3943 56.1142 26.4405 56.3472 26.4843C56.4532 26.505 56.5616 26.5212 56.67 26.5373C56.6723 26.5373 56.6769 26.5373 56.6815 26.5396C56.7231 26.5442 56.7623 26.5489 56.8038 26.5535C57.0736 26.5834 57.3434 26.6019 57.6132 26.6065C57.913 26.6134 58.2128 26.6019 58.5103 26.5742C58.5518 26.5696 58.5956 26.565 58.6371 26.5604C58.6441 26.5604 58.651 26.5581 58.6556 26.5581C58.6902 26.5535 58.7248 26.5465 58.7594 26.5419C58.9162 26.5143 59.073 26.482 59.2275 26.4405C59.3843 26.3989 59.5388 26.3528 59.691 26.2975C59.7371 26.2813 59.781 26.2629 59.8271 26.2467C59.8501 26.2375 59.8617 26.2329 59.8709 26.2306C59.9032 26.2121 59.9332 26.1937 59.9516 26.1845C60.1015 26.1107 60.2445 26.0276 60.3852 25.9354C60.459 25.887 60.5281 25.8316 60.5996 25.7832C60.316 25.9723 60.572 25.8016 60.6458 25.7371C60.7795 25.6194 60.904 25.4926 61.0193 25.3588C61.0401 25.3335 61.0609 25.3081 61.0816 25.2827C61.1323 25.2112 61.1831 25.1374 61.2315 25.0636C61.3376 24.8953 61.4345 24.7177 61.5175 24.5355C61.5221 24.5263 61.5267 24.5171 61.529 24.5078C61.5428 24.4756 61.5544 24.441 61.5682 24.4087C61.6051 24.3072 61.6397 24.2057 61.672 24.1019C61.8288 23.6015 62.3154 23.3317 62.825 23.447C63.307 23.5577 63.6253 24.1319 63.48 24.6001C63.1686 25.5987 62.6244 26.5512 61.7965 27.2084C60.5673 28.184 59.0176 28.5345 57.4702 28.4769C57.1105 28.463 56.7438 28.433 56.3794 28.3846C56.3771 29.7568 56.1811 31.1406 55.6069 32.3928C55.2448 33.1816 54.6752 33.8596 53.9534 34.3416C53.1255 34.8951 52.0855 35.105 51.1008 35.0773C50.1184 35.0519 49.1267 34.8397 48.2873 34.307C47.75 33.9657 47.2887 33.5206 46.9059 33.0132C46.8621 33.6105 46.8736 34.3001 47.0651 34.7982C47.4778 35.8752 48.0244 36.1866 48.0244 36.1866C48.0244 36.1866 48.3334 36.551 48.0244 37.0791C47.8999 37.2913 47.5793 37.8125 47.3003 38.4467C48.6401 37.4712 50.236 36.9292 51.9148 36.9292C54.0226 36.9292 56.0289 37.7802 57.5648 39.3254C58.1252 39.8881 58.6002 40.5292 58.9877 41.2257C59.322 41.1611 59.668 41.0896 60.03 41.0112C64.7276 39.9942 65.8484 36.4518 66.1159 34.7706C65.3018 34.6898 64.5039 34.4661 63.7498 34.0833C63.2032 33.8066 62.6405 33.4376 62.2208 32.9832C61.8657 32.5981 61.8657 32.0446 62.2208 31.6572C62.5529 31.2951 63.2125 31.2951 63.5468 31.6572C63.6575 31.7771 63.7844 31.8809 63.9112 31.9823C63.9389 32.0031 63.9643 32.0215 63.9919 32.04C64.0657 32.0907 64.1395 32.1415 64.2156 32.1899C64.4001 32.3075 64.5915 32.4136 64.7875 32.5081C64.8429 32.5358 64.9005 32.5612 64.9559 32.5866C65.0712 32.6304 65.1865 32.6742 65.3064 32.7111C65.5808 32.7987 65.8599 32.8656 66.1435 32.9117C66.1458 32.9117 66.1458 32.9117 66.1481 32.9117C66.1666 32.914 66.1827 32.9163 66.2012 32.9187C66.2773 32.9256 66.3511 32.9325 66.4272 32.9371C66.584 32.9463 66.7431 32.9509 66.8999 32.9463C67.0821 32.9417 67.2643 32.9279 67.4465 32.9094C67.4696 32.9071 67.4903 32.9025 67.5134 32.8979C67.6125 32.8818 67.7094 32.8633 67.8085 32.8426C68.2144 32.7549 68.6134 32.6304 68.9985 32.4759C69.01 32.4713 69.0146 32.4689 69.0239 32.4666C69.0308 32.4643 69.0331 32.462 69.0423 32.4574C69.093 32.4344 69.1438 32.4113 69.1922 32.3882C69.296 32.3398 69.3975 32.2891 69.4989 32.2383C69.6765 32.1461 69.8495 32.0446 70.0224 31.9431C70.3061 30.8615 70.5574 29.1595 69.9348 27.7089Z" fill="white"/>
<path d="M69.9002 34.1317C69.2937 34.4039 68.6618 34.6114 68.0115 34.7198C68.0092 34.7198 68.0069 34.7198 68.0046 34.7198C67.7394 36.6893 66.4757 41.544 60.4267 42.8539C60.1915 42.9046 59.9632 42.9531 59.7395 42.9969C60.0162 43.894 60.1615 44.8419 60.1546 45.8013C60.15 46.6153 60.0162 47.4479 59.7603 48.2943C62.4861 47.9437 64.3494 46.4055 64.8891 45.9073C65.6731 45.1832 66.6901 43.4258 66.6256 41.4771C66.6256 41.4771 66.4272 40.8913 67.0291 40.6491C67.631 40.407 69.2707 39.6206 69.8633 37.7087C70.3084 36.2765 70.1378 35.188 69.9002 34.1317Z" fill="white"/>
<path d="M51.9148 39.127C49.867 39.127 47.9737 40.2594 46.8506 42.1528L45.9097 43.7395L44.9688 42.1528C43.8457 40.2571 41.9524 39.127 39.9046 39.127C38.2972 39.127 36.7821 39.8166 35.6429 41.0689C34.4991 42.3281 33.8603 44.0047 33.8511 45.7943C33.8418 47.3349 34.4668 49.0208 35.7098 50.8035C36.7199 52.2541 38.1335 53.767 39.9138 55.3029C42.5958 57.6161 45.234 59.2373 45.9097 59.6409C46.5808 59.2373 49.2075 57.6115 51.8733 55.3029C53.6467 53.767 55.0604 52.2541 56.0751 50.8035C57.3227 49.0184 57.9615 47.3303 57.9707 45.7897C57.9822 43.9309 57.2696 42.1413 56.0151 40.8798C54.892 39.7474 53.4369 39.127 51.9148 39.127Z" fill="white"/>
<path d="M120.282 21.911C121.981 21.911 123.31 22.3769 124.267 23.304C125.226 24.2334 125.777 25.4603 125.923 26.9847L124.682 27.3122C124.55 26.0046 124.133 24.9737 123.43 24.2196C122.726 23.4654 121.668 23.0872 120.261 23.0872C119.027 23.0872 117.932 23.4285 116.973 24.1112C116.013 24.7938 115.273 25.7417 114.752 26.9548C114.231 28.1678 113.968 29.5516 113.968 31.1037C113.968 32.7595 114.397 34.0695 115.252 35.0358C116.108 36.0021 117.277 36.4841 118.76 36.4841C120.169 36.4841 121.333 36.0298 122.256 35.1234C123.178 34.2171 123.806 32.8034 124.14 30.8869L118.651 30.9307L118.847 29.7545H125.535L124.839 33.4791L124.338 37.3559H123.314L123.575 35.0473C123.082 35.8753 122.387 36.5187 121.495 36.9753C120.602 37.432 119.648 37.6603 118.631 37.6603C117.397 37.6603 116.329 37.3881 115.43 36.8439C114.528 36.2996 113.839 35.5293 113.361 34.5353C112.882 33.5414 112.642 32.3905 112.642 31.0829C112.642 29.3117 112.962 27.7297 113.601 26.3344C114.24 24.9414 115.139 23.8552 116.302 23.078C117.459 22.3008 118.785 21.911 120.282 21.911Z" fill="white"/>
<path d="M129.158 37.0376C128.455 36.6248 127.901 36.0321 127.502 35.2618C127.103 34.4915 126.903 33.5852 126.903 32.5382C126.903 31.4934 127.101 30.4395 127.502 29.3809C127.901 28.3201 128.538 27.4322 129.407 26.7126C130.279 25.9931 131.374 25.6333 132.696 25.6333C134.176 25.6333 135.251 26.0623 135.92 26.9179C136.586 27.7735 136.92 28.8989 136.92 30.2942C136.92 30.7301 136.884 31.2374 136.812 31.8186H128.208C128.194 31.9639 128.187 32.1807 128.187 32.4713C128.187 33.7628 128.505 34.7683 129.147 35.4878C129.785 36.2074 130.62 36.5671 131.651 36.5671C132.537 36.5671 133.314 36.2904 133.98 35.7392C134.649 35.188 135.106 34.4177 135.352 33.4307L136.528 33.7581C136.208 34.9343 135.618 35.8776 134.753 36.5902C133.888 37.3028 132.825 37.658 131.561 37.658C130.664 37.6603 129.861 37.4527 129.158 37.0376ZM135.68 30.7969C135.707 30.4764 135.724 30.2458 135.724 30.1005C135.724 29.0696 135.472 28.2486 134.972 27.6397C134.471 27.0309 133.69 26.7241 132.631 26.7241C131.499 26.7241 130.576 27.1162 129.864 27.9003C129.151 28.6844 128.658 29.6508 128.383 30.7969H135.68Z" fill="white"/>
<path d="M142.324 22.4991L141.692 25.94H145.372L145.197 26.9847L141.517 26.9409L140.297 33.8896C140.223 34.3693 140.188 34.7452 140.188 35.0219C140.188 35.5593 140.308 35.9514 140.548 36.1981C140.788 36.4449 141.191 36.5694 141.756 36.5694C142.453 36.5694 143.122 36.4541 143.76 36.2212L143.825 37.2013C143.027 37.5057 142.236 37.658 141.452 37.658C140.536 37.658 139.886 37.4619 139.503 37.0699C139.118 36.6778 138.927 36.1036 138.927 35.3494C138.927 34.8997 138.984 34.3693 139.1 33.7604L140.297 26.9432L138.445 26.987L138.62 25.9423H140.472L141.081 22.5014" fill="white"/>
<path d="M117.872 69.9083C116.043 69.9083 114.434 69.5647 113.043 68.8797C111.652 68.1947 110.536 67.2377 109.69 66.0061C108.844 64.7769 108.295 63.3332 108.043 61.6774C107.792 60.0215 107.903 58.2134 108.375 56.2508C108.85 54.2882 109.609 52.4732 110.652 50.8058C111.694 49.1384 112.942 47.697 114.39 46.477C115.838 45.2593 117.415 44.3138 119.122 43.6403C120.828 42.9669 122.609 42.6302 124.461 42.6302C126.289 42.6302 127.853 42.9485 129.151 43.5873C130.45 44.2261 131.473 45.0725 132.225 46.1241C132.977 47.1758 133.418 48.3289 133.549 49.5835L128.868 51.6406C128.713 50.2938 128.169 49.1868 127.233 48.3243C126.296 47.4618 125.019 47.0282 123.395 47.0282C121.795 47.0282 120.289 47.4179 118.875 48.1997C117.464 48.9793 116.253 50.0563 115.248 51.4285C114.242 52.8007 113.516 54.4081 113.071 56.2531C112.626 58.0981 112.573 59.7101 112.914 61.0962C113.253 62.4799 113.942 63.5615 114.976 64.341C116.011 65.1206 117.328 65.5103 118.928 65.5103C120.552 65.5103 122.039 65.079 123.391 64.2165C124.742 63.354 125.819 62.2608 126.619 60.9347L130.316 62.9573C129.578 64.2119 128.579 65.365 127.32 66.4166C126.059 67.4683 124.627 68.3147 123.019 68.9535C121.419 69.59 119.701 69.9083 117.872 69.9083Z" fill="white"/>
<path d="M133.203 69.4816L148.405 43.0546H154.442L156.873 69.4816H151.797L151.343 63.8406H141.464L138.249 69.4816H133.203ZM143.837 59.551H151.006L149.959 46.4263H151.262L143.837 59.551Z" fill="white"/>
<path d="M162.463 69.4816L168.849 43.0546H172.52L181.818 62.6367L179.872 63.0265L184.696 43.0546H189.362L182.976 69.4816H179.27L170.212 49.7588L172.02 49.369L167.161 69.4816H162.463Z" fill="white"/>
<path d="M190.66 69.4816L197.046 43.0546H200.717L210.015 62.6367L208.069 63.0265L212.893 43.0546H217.558L211.173 69.4816H207.467L198.408 49.7588L200.216 49.369L195.357 69.4816H190.66Z" fill="white"/>
<path d="M218.857 69.4816L225.242 43.0546H242.257L241.228 47.3119H228.914L227.276 54.0876H238.906L237.868 58.3794H226.239L224.585 65.2266H236.9L235.871 69.4839H218.857V69.4816Z" fill="white"/>
<path d="M253.983 69.9083C252.155 69.9083 250.545 69.5647 249.154 68.8797C247.764 68.1947 246.648 67.2377 245.801 66.0061C244.955 64.7769 244.406 63.3332 244.155 61.6774C243.903 60.0215 244.014 58.2134 244.487 56.2508C244.962 54.2882 245.721 52.4732 246.763 50.8058C247.805 49.1384 249.053 47.697 250.501 46.477C251.949 45.2593 253.527 44.3138 255.233 43.6403C256.94 42.9669 258.72 42.6302 260.572 42.6302C262.401 42.6302 263.964 42.9485 265.263 43.5873C266.561 44.2261 267.585 45.0725 268.337 46.1241C269.089 47.1758 269.529 48.3289 269.66 49.5835L264.979 51.6406C264.824 50.2938 264.28 49.1868 263.344 48.3243C262.408 47.4618 261.13 47.0282 259.507 47.0282C257.906 47.0282 256.4 47.4179 254.987 48.1997C253.575 48.9793 252.365 50.0563 251.359 51.4285C250.354 52.8007 249.627 54.4081 249.182 56.2531C248.737 58.0981 248.684 59.7101 249.025 61.0962C249.364 62.4799 250.054 63.5615 251.087 64.341C252.12 65.1206 253.439 65.5103 255.04 65.5103C256.663 65.5103 258.151 65.079 259.502 64.2165C260.853 63.354 261.93 62.2608 262.731 60.9347L266.427 62.9573C265.689 64.2119 264.691 65.365 263.432 66.4166C262.17 67.4683 260.738 68.3147 259.131 68.9535C257.53 69.59 255.812 69.9083 253.983 69.9083Z" fill="white"/>
<path d="M275.935 69.4816L281.293 47.3119H274.672L275.7 43.0546H293.538L292.509 47.3119H285.992L280.635 69.4816H275.935Z" fill="white"/>
<path d="M292.745 69.4816L299.13 43.0546H307.501C310.2 43.0546 312.413 43.6173 314.143 44.7404C315.873 45.8635 317.046 47.4179 317.665 49.4059C318.283 51.3916 318.28 53.6747 317.658 56.2531C317.035 58.8315 315.933 61.1192 314.353 63.1164C312.773 65.1159 310.845 66.6749 308.574 67.7981C306.3 68.9212 303.816 69.4816 301.118 69.4816H292.745ZM298.473 65.2266H302.246C303.985 65.2266 305.578 64.853 307.026 64.1081C308.475 63.3632 309.715 62.3231 310.748 60.9855C311.779 59.6502 312.517 58.0704 312.955 56.2508C313.396 54.4312 313.421 52.8514 313.036 51.5138C312.651 50.1785 311.911 49.143 310.82 48.4096C309.727 47.6762 308.313 47.3095 306.574 47.3095H302.802L298.473 65.2266Z" fill="white"/>
</svg>
