<svg width="103" height="103" viewBox="0 0 103 103" fill="none" xmlns="http://www.w3.org/2000/svg">
<mask id="mask0_127_135" style="mask-type:luminance" maskUnits="userSpaceOnUse" x="10" y="10" width="83" height="85">
<path d="M10 10H93V94.2329H10V10Z" fill="white"/>
</mask>
<g mask="url(#mask0_127_135)">
<path d="M67.9259 87.4574C88.3148 77.0222 94.3406 55.8136 90.8535 19.9668C90.8535 19.9668 67.1698 28.6665 51.5 11.2339C43.4188 20.2243 33.2062 22.2641 25.2099 22.1315M19.2743 21.6387C14.9536 20.9978 12.1465 19.9668 12.1465 19.9668C7.85648 64.0668 17.964 86.0121 51.5001 92.9989C55.5975 92.1453 59.3455 91.0682 62.76 89.7548M83.4277 45.1518C83.3566 46.1696 83.2705 47.165 83.1695 48.1387C82.3964 55.5892 80.7693 61.6139 78.1953 66.5566C75.7356 71.2796 72.385 75.0115 67.9518 77.9654C63.5862 80.8741 58.1917 83.0459 51.5 84.5843C44.8084 83.0459 39.4137 80.8741 35.0483 77.9654C30.6149 75.0115 27.2643 71.2796 24.8048 66.5566C22.2308 61.6139 20.6037 55.5892 19.8306 48.1387C19.2757 42.7904 19.1711 36.7938 19.5195 29.9717C21.4731 30.2088 23.6355 30.3658 25.9514 30.3633C35.6769 30.3582 44.3715 27.5798 51.5 22.2584C58.6284 27.5798 67.323 30.3582 77.0487 30.3633C79.3675 30.36 81.5267 30.2088 83.4806 29.9717C83.6404 33.1019 83.7048 36.0582 83.6743 38.858M51.5 59.7114C52.8429 59.7114 53.9316 58.6065 53.9316 57.2436C53.9316 55.8806 52.8429 54.7759 51.5 54.7759C50.1571 54.7759 49.0684 55.8806 49.0684 57.2436C49.0684 58.6065 50.1571 59.7114 51.5 59.7114ZM51.5 59.7114V62.4615M38.9089 60.1543C38.3817 55.5037 39.6963 50.4502 40.4606 47.8501H62.5394C64.1774 53.4213 68.341 70.2567 51.4999 70.2567C45.7298 70.2567 42.4254 68.2803 40.6406 65.4579M57.9844 47.85H45.0156V41.8951C45.0156 38.2606 47.9188 35.3144 51.5 35.3144C55.0812 35.3144 57.9844 38.2606 57.9844 41.8951V47.85Z" stroke="black" stroke-width="2.4" stroke-miterlimit="10" stroke-linecap="round" stroke-linejoin="round"/>
</g>
</svg>
