<svg width="37" height="37" viewBox="0 0 37 37" fill="none" xmlns="http://www.w3.org/2000/svg">
<path d="M18.5 0C8.28273 0 0 8.28273 0 18.5C0 28.7173 8.28273 37 18.5 37C28.7173 37 37 28.7173 37 18.5C37 8.28273 28.7173 0 18.5 0ZM18.5 35.3182C9.21155 35.3182 1.68184 27.7884 1.68184 18.5C1.68184 9.21155 9.21155 1.68184 18.5 1.68184C27.7884 1.68184 35.3182 9.21155 35.3182 18.5C35.3182 27.7884 27.7884 35.3182 18.5 35.3182Z" fill="white"/>
<path d="M23.5454 10.0908H13.4545C11.5969 10.0908 10.0909 11.5968 10.0909 13.4544V23.5453C10.0909 25.403 11.5969 26.9089 13.4545 26.9089H23.5454C25.4031 26.9089 26.909 25.403 26.909 23.5453V13.4545C26.9091 11.5968 25.4032 10.0908 23.5454 10.0908ZM21.8636 12.6135H24.3863V15.1363H21.8636V12.6135ZM18.5 15.1363C20.3576 15.1363 21.8636 16.6423 21.8636 18.4999C21.8636 20.3576 20.3576 21.8635 18.5 21.8635C16.6423 21.8635 15.1364 20.3576 15.1364 18.4999C15.1364 16.6423 16.6423 15.1363 18.5 15.1363ZM25.2273 23.5454C25.2273 24.4742 24.4743 25.2272 23.5454 25.2272H13.4545C12.5257 25.2272 11.7727 24.4742 11.7727 23.5454V17.659H13.5386C13.0336 20.3994 14.8457 23.0303 17.586 23.5353C20.3264 24.0404 22.9573 22.2283 23.4624 19.4879C23.5225 19.1621 23.5503 18.8312 23.5454 18.4999C23.5413 18.2178 23.5131 17.9365 23.4613 17.6591H25.2272V23.5454H25.2273Z" fill="white"/>
</svg>
